<?xml version="1.0" standalone="no"?>
<svg xmlns:xlink="http://www.w3.org/1999/xlink" id="wave" style="transform:rotate(0deg); transition: 0.3s" viewBox="0 0 1440 150" version="1.1" xmlns="http://www.w3.org/2000/svg"><defs><linearGradient id="sw-gradient-0" x1="0" x2="0" y1="1" y2="0"><stop stop-color="rgba(36, 128, 145, 1)" offset="0%"/><stop stop-color="rgba(36, 128, 145, 1)" offset="100%"/></linearGradient></defs><path style="transform:translate(0, 0px); opacity:1" fill="url(#sw-gradient-0)" d="M0,30L48,30C96,30,192,30,288,45C384,60,480,90,576,85C672,80,768,40,864,40C960,40,1056,80,1152,90C1248,100,1344,80,1440,82.5C1536,85,1632,110,1728,112.5C1824,115,1920,95,2016,82.5C2112,70,2208,65,2304,52.5C2400,40,2496,20,2592,12.5C2688,5,2784,10,2880,15C2976,20,3072,25,3168,30C3264,35,3360,40,3456,42.5C3552,45,3648,45,3744,50C3840,55,3936,65,4032,77.5C4128,90,4224,105,4320,107.5C4416,110,4512,100,4608,80C4704,60,4800,30,4896,20C4992,10,5088,20,5184,32.5C5280,45,5376,60,5472,77.5C5568,95,5664,115,5760,120C5856,125,5952,115,6048,105C6144,95,6240,85,6336,70C6432,55,6528,35,6624,37.5C6720,40,6816,65,6864,77.5L6912,90L6912,150L6864,150C6816,150,6720,150,6624,150C6528,150,6432,150,6336,150C6240,150,6144,150,6048,150C5952,150,5856,150,5760,150C5664,150,5568,150,5472,150C5376,150,5280,150,5184,150C5088,150,4992,150,4896,150C4800,150,4704,150,4608,150C4512,150,4416,150,4320,150C4224,150,4128,150,4032,150C3936,150,3840,150,3744,150C3648,150,3552,150,3456,150C3360,150,3264,150,3168,150C3072,150,2976,150,2880,150C2784,150,2688,150,2592,150C2496,150,2400,150,2304,150C2208,150,2112,150,2016,150C1920,150,1824,150,1728,150C1632,150,1536,150,1440,150C1344,150,1248,150,1152,150C1056,150,960,150,864,150C768,150,672,150,576,150C480,150,384,150,288,150C192,150,96,150,48,150L0,150Z"/></svg>